<svg width="27" height="17" viewBox="0 0 27 17" fill="none" xmlns="http://www.w3.org/2000/svg">
<path d="M13.5 0C7.36364 0 2.12318 3.52467 0 8.5C2.12318 13.4753 7.36364 17 13.5 17C19.6425 17 24.8768 13.4753 27 8.5C24.8768 3.52467 19.6425 0 13.5 0ZM13.5 14.1667C10.1127 14.1667 7.36364 11.628 7.36364 8.5C7.36364 5.372 10.1127 2.83333 13.5 2.83333C16.8873 2.83333 19.6364 5.372 19.6364 8.5C19.6364 11.628 16.8873 14.1667 13.5 14.1667ZM13.5 5.1C11.4689 5.1 9.81818 6.62433 9.81818 8.5C9.81818 10.3757 11.4689 11.9 13.5 11.9C15.5311 11.9 17.1818 10.3757 17.1818 8.5C17.1818 6.62433 15.5311 5.1 13.5 5.1Z" fill="black"/>
</svg>
